<svg viewBox="0 0 90 90" xmlns="http://www.w3.org/2000/svg"><path d="m31.06 76.07 1.94-.07c5.41-.16 8.94 8 13 8h32c4 0 4.78-5.89 4.73-8.33 0 0 4.94-2.21 2.68-11.11a9.13 9.13 0 0 0 2.85-7 9.17 9.17 0 0 0 -2.68-6.81 11.52 11.52 0 0 0 2.68-7.22c0-4.3-3.78-6.75-7.8-6.75h-11.75c-10.24 0-9.38-5.4-9.38-5.4s-1.16-14.13-4.76-20.6c-4.52-8.18-13.57-5.45-10.21 5.11 2.51 7.78-9 19.5-13.16 23.45" fill="#ffdac6"/><path d="m27.1 33.87h-21.17c-4 0-4.13 3-4.13 6.67v33.9c0 3.68.12 6.66 4.13 6.66h21.17c4 0 4.13-3 4.13-6.66v-33.9c0-3.68-.11-6.67-4.13-6.67z" fill="#ff8898"/><circle cx="16.52" cy="69.78" fill="#ffeb97" r="3.76"/><g fill="#576065"><path d="m77.95 85.8h-31.95c-2.59 0-4.69-2.08-6.73-4.09s-4-4-6.19-3.91l-1.92.06-.16-3.59 1.92-.06c3.66-.18 6.43 2.57 8.83 4.94 1.52 1.5 3.09 3 4.2 3h32a1.7 1.7 0 0 0 1.3-.56c1.26-1.28 1.66-4.32 1.62-5.93v-1.2l1.1-.49c.11-.06 3.49-1.85 1.66-9l-.36-1.39 1.09-.58a7.7 7.7 0 0 0 2-5.52 7.48 7.48 0 0 0 -2-5.44l-1.43-1.21 1.27-1.38a9.81 9.81 0 0 0 2.2-6c0-3.4-3.11-4.95-6-4.95h-11.69c-4.68 0-8-1.08-9.79-3.2a5.67 5.67 0 0 1 -1.4-4c-.14-1.51-1.35-14-4.52-19.73-1.82-3.22-4.33-4.25-5.87-3.57s-2.4 3.17-1.05 7.35c2.68 8.32-7.4 19.43-13.64 25.31l-2.44-2.66c7.28-6.86 14.44-16.13 12.68-21.58-2.18-6.75.28-10.55 3-11.75 3-1.28 7.47-.2 10.45 5.18 3.74 6.73 4.93 20.74 5 21.33v.22.21a2.15 2.15 0 0 0 .61 1.45c.63.7 2.39 1.87 7 1.87h11.66c5.47 0 9.6 3.67 9.6 8.55a13.25 13.25 0 0 1 -2.17 7.13 11.54 11.54 0 0 1 2.17 6.91 11.69 11.69 0 0 1 -2.67 7.62c1.46 7-1.27 10.24-2.88 11.51-.09 1.78-.54 5.37-2.63 7.51a5.32 5.32 0 0 1 -3.87 1.64z"/><path d="m27.1 82.9h-21.17c-5.93 0-5.93-5.09-5.93-8.46v-33.9c0-3.37 0-8.47 5.93-8.47h21.17c5.93 0 5.93 5.1 5.93 8.47v33.9c-.03 3.37-.03 8.46-5.93 8.46zm-21.17-47.23c-1.89 0-2.33.45-2.33 4.87v33.9c0 4.41.44 4.86 2.33 4.86h21.17c1.89 0 2.33-.45 2.33-4.86v-33.9c0-4.42-.44-4.87-2.33-4.87z"/></g></svg>