<svg enable-background="new 0 0 1010 1009.3905" viewBox="0 0 1010 1009.3905" xmlns="http://www.w3.org/2000/svg"><path d="m877.3223 271.3104c0 54.5879-44.2149 98.8203-98.7696 98.8203-54.5536 0-98.8359-44.2324-98.8359-98.8203 0-54.5537 44.2822-98.8027 98.8359-98.8027 54.5547 0 98.7696 44.249 98.7696 98.8027z" fill="#ffca72"/><path d="m539.6914 183.5614c0 401.5039 120.6719 678.832 260.5606 808.4151h-139.7188v-52.4288c0-83.9902-67.1719-152.1836-151.248-152.1836-84.0757 0-151.2139 68.1934-151.2139 152.1836v52.4288h-148.3233c139.8545-129.5831 260.5948-404.9209 260.5948-806.4083" fill="#907973"/><path d="m440.2085 171.1132h129.5825v-44.9463l-64.8247-109.3633-64.7578 109.3633z" fill="#907973"/><path d="m17.4141 692.5243c0 62.8525 50.9487 113.7852 113.7675 113.7852 62.8531 0 113.7681-50.9327 113.7681-113.7852 0-62.8027-50.915-113.751-113.7681-113.751-62.8188 0-113.7675 50.9483-113.7675 113.751z" fill="#a6dddd"/><path d="m765.0508 692.5243c0 62.8525 50.9492 113.7852 113.8017 113.7852 62.7842 0 113.7334-50.9327 113.7334-113.7852 0-62.8027-50.9492-113.751-113.7334-113.751-62.8525 0-113.8017 50.9483-113.8017 113.751z" fill="#a6dddd"/><g fill="#37474f"><path d="m569.791 188.5272h-129.5825c-9.625 0-17.4136-7.789-17.4136-17.414v-44.9463c0-3.1289.833-6.1895 2.4317-8.877l64.7578-109.3633c6.2578-10.5605 23.6719-10.5771 29.9638 0l64.8252 109.3633c1.5987 2.6875 2.4317 5.7481 2.4317 8.877v44.9463c0 9.625-7.7881 17.414-17.4141 17.414zm-112.1684-34.8281h94.7553v-22.7529l-47.4116-79.9776-47.3437 79.96z"/><path d="m800.252 1009.3905h-139.7188c-9.625 0-17.4131-7.7881-17.4131-17.414v-52.4288c0-74.3144-60.0303-134.7695-133.8349-134.7695-73.7701 0-133.8003 60.4551-133.8003 134.7695v52.4288c0 9.6259-7.7886 17.414-17.4136 17.414h-148.3233c-7.1591 0-13.6044-4.3877-16.2065-11.0537-2.6186-6.666-.8843-14.2676 4.3706-19.1309 159.6831-147.9668 255.0166-444.6474 255.0166-793.6377 0-9.625 7.7886-17.414 17.4141-17.414 9.625 0 17.4135 7.789 17.4135 17.414 0 336.4737-87.6298 626.8965-236.1913 788.9952h89.0928v-35.0157c0-93.5136 75.6411-169.5966 168.6275-169.5966 93.0039 0 168.6621 76.0829 168.6621 169.5966v35.0157h80.4882c-148.5274-162.1494-236.1583-453.3028-236.1583-791.002 0-9.625 7.7891-17.4141 17.4141-17.4141s17.4141 7.7891 17.4141 17.4141c0 350.2998 95.3164 647.7461 254.9824 795.6445 5.2559 4.8633 6.9902 12.4473 4.3711 19.1309-2.6016 6.666-9.0469 11.0537-16.207 11.0537z"/><path d="m703.6943 663.7675h-388.8173c-9.6255 0-17.4141-7.7881-17.4141-17.4141 0-9.625 7.7886-17.4131 17.4141-17.4131h388.8173c9.625 0 17.4131 7.7881 17.4131 17.4131 0 9.626-7.7881 17.4141-17.4131 17.4141z"/><path d="m595.709 490.9559h-172.812c-9.6255 0-17.4141-7.789-17.4141-17.414s7.7886-17.4141 17.4141-17.4141h172.812c9.625 0 17.4131 7.7891 17.4131 17.4141s-7.7881 17.414-17.4131 17.414z"/><path d="m131.1816 823.7225c-72.3418 0-131.1816-58.8564-131.1816-131.1982 0-72.3252 58.8398-131.165 131.1816-131.165 72.3423 0 131.1817 58.8398 131.1817 131.165 0 72.3418-58.8394 131.1982-131.1817 131.1982zm0-227.5361c-53.1254 0-96.354 43.2119-96.354 96.3379 0 53.1426 43.2286 96.3711 96.354 96.3711 53.126 0 96.3545-43.2285 96.3545-96.3711 0-53.126-43.2285-96.3379-96.3545-96.3379z"/><path d="m131.1816 786.3104c-4.455 0-8.9111-1.7002-12.312-5.1015-6.8022-6.8028-6.8022-17.8223 0-24.624l67.3081-67.2753c6.8028-6.8018 17.8223-6.8018 24.6245 0 6.8023 6.8027 6.8023 17.8221 0 24.625l-67.3081 67.2744c-3.4013 3.4012-7.8569 5.1014-12.3125 5.1014z"/><path d="m131.1816 786.3104c-4.455 0-8.9111-1.7002-12.312-5.1015l-67.3081-67.2744c-6.8027-6.8029-6.8027-17.8223 0-24.625 6.8018-6.8018 17.8218-6.8018 24.624 0l67.3086 67.2753c6.8018 6.8018 6.8018 17.8212 0 24.624-3.4013 3.4014-7.8569 5.1016-12.3125 5.1016z"/><path d="m131.1816 1009.3905c-9.625 0-17.4135-7.7881-17.4135-17.414v-223.0801c0-9.625 7.7885-17.4131 17.4135-17.4131s17.4141 7.7881 17.4141 17.4131v223.0801c0 9.6259-7.7891 17.414-17.4141 17.414z"/><path d="m878.8525 823.7225c-72.3584 0-131.2158-58.8564-131.2158-131.1982 0-72.3252 58.8574-131.165 131.2158-131.165 72.3077 0 131.1475 58.8398 131.1475 131.165 0 72.3418-58.8398 131.1982-131.1475 131.1982zm0-227.5361c-53.1425 0-96.3877 43.2119-96.3877 96.3379 0 53.1426 43.2452 96.3711 96.3877 96.3711 53.1084 0 96.3194-43.2285 96.3194-96.3711 0-53.126-43.211-96.3379-96.3194-96.3379z"/><path d="m878.8525 786.3104c-4.456 0-8.9111-1.7002-12.3115-5.1015-6.8027-6.8028-6.8027-17.8223 0-24.624l67.2734-67.2753c6.8027-6.8018 17.8222-6.8018 24.625 0 6.8018 6.8027 6.8018 17.8221 0 24.625l-67.2754 67.2744c-3.4003 3.4012-7.8554 5.1014-12.3115 5.1014z"/><path d="m878.8525 786.3104c-4.456 0-8.9111-1.7002-12.3115-5.1015l-67.3428-67.2744c-6.8017-6.7852-6.8017-17.8223 0-24.625 6.8018-6.8018 17.8213-6.8018 24.6241 0l67.3418 67.2753c6.8027 6.7852 6.8027 17.8212 0 24.624-3.4004 3.4014-7.8555 5.1016-12.3116 5.1016z"/><path d="m878.8525 1009.3905c-9.625 0-17.413-7.7881-17.413-17.414v-223.0801c0-9.625 7.788-17.4131 17.413-17.4131s17.4131 7.7881 17.4131 17.4131v223.0801c0 9.6259-7.7881 17.414-17.4131 17.414z"/></g></svg>