<svg enable-background="new 0 0 596.7968 1010" viewBox="0 0 596.7968 1010" xmlns="http://www.w3.org/2000/svg"><path d="m240.8515 223.9302h115.0938v331.8315h-115.0938z" fill="#fffffd"/><path d="m215.7172 860.333h-181.7563v-423.0669c0-114.0737 90.8779-204.9858 204.9351-204.9858" fill="#ffca72"/><path d="m215.7172 877.7471h-181.7563c-9.6255 0-17.4141-7.8057-17.4141-17.4141v-423.0669c0-124.7109 97.6636-222.3999 222.3492-222.3999 9.625 0 17.4135 7.7974 17.4135 17.4141s-7.7885 17.4135-17.4135 17.4135c-105.146 0-187.5215 82.3926-187.5215 187.5723v405.6528h164.3427c9.625 0 17.4136 7.8057 17.4136 17.4141s-7.7886 17.4141-17.4136 17.4141z" fill="#37474f"/><path d="m357.9013 232.2803c114.0401 0 204.9346 90.9121 204.9346 204.9858v423.0669h-181.79" fill="#ffca72"/><g fill="#37474f"><path d="m562.8359 877.7471h-181.79c-9.625 0-17.4131-7.8057-17.4131-17.4141s7.7881-17.4141 17.4131-17.4141h164.3769v-405.6528c0-105.1797-82.376-187.5723-187.5215-187.5723-9.625 0-17.4131-7.7968-17.4131-17.4135s7.7881-17.4141 17.4131-17.4141c124.6856 0 222.3487 97.689 222.3487 222.3999v423.0669c0 9.6084-7.7881 17.4141-17.4141 17.4141z"/><path d="m248.81 555.4902c-9.625 0-17.4136-7.8066-17.4136-17.414v-300.8135c0-9.6167 7.7886-17.4136 17.4136-17.4136s17.4141 7.7969 17.4141 17.4136v300.8135c0 9.6074-7.7891 17.414-17.4141 17.414z"/><path d="m347.9873 555.4902c-9.626 0-17.4141-7.8066-17.4141-17.414v-300.8135c0-9.6167 7.7881-17.4136 17.4141-17.4136 9.625 0 17.4131 7.7969 17.4131 17.4136v300.8135c0 9.6074-7.7881 17.414-17.4131 17.414z"/></g><path d="m187.6748 166.1963h-170.2608v-66.1524h170.2608" fill="#907973"/><path d="m187.6748 183.6099h-170.2608c-9.625 0-17.414-7.7969-17.414-17.4136v-66.1524c0-9.6167 7.789-17.4135 17.414-17.4135h170.2608c9.625 0 17.4135 7.7968 17.4135 17.4135s-7.7885 17.4141-17.4135 17.4141h-152.8467v31.3242h152.8467c9.625 0 17.4135 7.7974 17.4135 17.4141s-7.7885 17.4136-17.4135 17.4136z" fill="#37474f"/><path d="m409.123 166.1963h170.2598v-66.1524h-170.2598" fill="#907973"/><path d="m579.3828 183.6099h-170.2598c-9.626 0-17.4141-7.7969-17.4141-17.4136s7.7881-17.4141 17.4141-17.4141h152.8457v-31.3242h-152.8457c-9.626 0-17.4141-7.7974-17.4141-17.4141s7.7881-17.4135 17.4141-17.4135h170.2598c9.625 0 17.414 7.7968 17.414 17.4135v66.1524c0 9.6167-7.789 17.4136-17.414 17.4136z" fill="#37474f"/><path d="m381.0459 678.543v231.3788c0 46.3232-36.3584 82.664-82.6646 82.664-46.272 0-82.6641-36.3408-82.6641-82.664v-231.3788" fill="#907973"/><path d="m298.3813 1010c-56.1186 0-100.0781-43.96-100.0781-100.0781v-231.3789c0-9.6085 7.7886-17.4141 17.414-17.4141 9.625 0 17.4136 7.8057 17.4136 17.4141v231.3788c0 36.5791 28.6548 65.25 65.2505 65.25 36.5962 0 65.2515-28.6709 65.2515-65.25v-231.3788c0-9.6085 7.7881-17.4141 17.4131-17.4141 9.6259 0 17.414 7.8057 17.414 17.4141v231.3788c0 56.1182-43.9599 100.0782-100.0786 100.0782z" fill="#37474f"/><path d="m298.3813 17.4136c63.9243 0 115.7066 51.7993 115.7066 115.6894 0 63.9073-51.7823 115.7066-115.7066 115.7066-63.8901 0-115.6894-51.7993-115.6894-115.7066 0-63.8901 51.7993-115.6894 115.6894-115.6894z" fill="#ffca72"/><path d="m298.3813 266.2236c-73.396 0-133.103-59.7158-133.103-133.1206 0-73.3965 59.707-133.103 133.103-133.103s133.1206 59.7065 133.1206 133.103c0 73.4048-59.7246 133.1206-133.1206 133.1206zm0-231.396c-54.1968 0-98.2754 44.087-98.2754 98.2754 0 54.1973 44.0786 98.293 98.2754 98.293s98.2925-44.0957 98.2925-98.293c0-54.1884-44.0957-98.2754-98.2925-98.2754z" fill="#37474f"/><path d="m298.3813 82.3242c28.0425 0 50.7964 22.7368 50.7964 50.7788 0 28.0596-22.7539 50.7788-50.7964 50.7788-28.0591 0-50.7959-22.7192-50.7959-50.7788 0-28.042 22.7368-50.7788 50.7959-50.7788z" fill="#fffffd"/><path d="m298.3813 529.7939c-82.6641 0-148.7651 66.1006-148.7651 148.7491h297.5136c0-82.6485-66.0839-148.7491-148.7485-148.7491z" fill="#a6dddd"/><path d="m447.1298 695.957h-297.5136c-9.6255 0-17.4141-7.8066-17.4141-17.4139 0-91.627 74.5527-166.1621 166.1792-166.1621s166.1626 74.535 166.1626 166.162c0 9.6074-7.7881 17.414-17.4141 17.414zm-279.0117-34.8281h260.5098c-8.2822-65.1152-62.5127-113.9209-130.2466-113.9209-67.7334 0-121.9814 48.8057-130.2632 113.9209z" fill="#37474f"/></svg>