<svg enable-background="new 0 0 1009.9995 819.1334" viewBox="0 0 1009.9995 819.1334" xmlns="http://www.w3.org/2000/svg"><path d="m67.8184 706.2153s-50.4048-44.5546-50.4048-113.2578c0-179.8017 142.644-325.6426 318.6191-325.6426 175.8902 0 318.5513 145.8409 318.5513 325.6426 0 34.4199 23.2637 62.3428 51.7988 62.3428 0 0 96.6104 25.6445 139.3115-43.9092 21.3594-34.9297 18.9102-94.789-19.4892-102.8496-46.5274-9.7285-71.7969 23.2969-74.9942 56.9346 0 0-74.4178-41.46-33.6718-115.1631 0 0 48.4668-67.9717 118.4619-19.2842 0 0-15.6114-91.4394 67.581-99.789 0 0 76.916-9.2686 89.0078 88.3955 0 0-94.4843-17.2608-92.6816 54.0097 0 0 28.6035 80.9141 15.7139 157.167-3.9453 23.2979-19.5567 73.8047-73.4991 107.1699-49.7246 30.7471-150.0917 63.6358-339.791 63.6358-310.0996 0-434.5136 0-434.5136 0s-49.5205 3.9111-49.5205-47.6162c0-45.541 29.7939-47.3096 49.5205-47.3096h311.205" fill="#a6dddd"/><g fill="#37474f"><path d="m64.7915 819.1334c-7.7974 0-28.7227-1.5986-44.9292-16.5801-8.6558-8.0097-18.9785-22.9238-18.9785-48.5517 0-30.5088 11.3686-50.3369 33.876-59.2647-15.9004-21.7843-34.7598-57.0548-34.7598-101.7794 0-189.1543 150.7471-343.0566 336.0327-343.0566 185.2525 0 335.9653 153.9023 335.9653 343.0566 0 24.3516 15.7471 44.9287 34.3848 44.9287 1.4971 0 3.0108.2041 4.4561.5791 3.4189.8838 84.7226 21.3077 120.0263-36.1894 11.1563-18.2813 14.1661-45.9824 6.8029-63.0567-4.9825-11.5293-12.5508-13.1113-15.0333-13.6386-14.3702-2.959-26.4102-1.0196-35.7637 5.8672-10.0498 7.3974-16.9033 20.747-18.3145 35.6777-.5781 5.8496-4.0468 11.0371-9.2519 13.7578-5.2031 2.7549-11.4277 2.6523-16.5625-.1875-30.9844-17.2773-79.3145-68.498-40.4395-138.8008.3057-.5947.6797-1.1562 1.0537-1.7002 17.3116-24.2666 60.71-58.0576 114.6182-38.2968 1.4286-16.7676 6.2578-37.3438 19.3867-54.6055 14.7266-19.335 36.4258-30.5586 64.4864-33.3819.5947-.1015 93.9726-9.9824 108.0195 103.5821.6807 5.5097-1.292 11.0019-5.3223 14.8115-4.0135 3.8096-9.6084 5.5264-15.084 4.4561-11.7509-2.0586-45.9492-4.4561-62.3603 9.6416-6.4111 5.5107-9.625 13.4853-9.7949 24.3183 5.1523 15.7139 27.7363 90.5215 15.4922 163-3.9113 23.0596-19.6592 80.8115-81.5255 119.0742-48.8584 30.2188-149.0723 66.2373-348.9405 66.2373h-434.5135c-.2803.0332-1.3516.1017-3.0269.1017zm3.0269-95.0274c-21.8267 0-32.1065 2.9414-32.1065 29.8955 0 10.374 2.5762 18.0595 7.6524 22.8388 7.2275 6.8028 19.2763 7.5674 23.2299 7.4141l435.7378-.0508c201.8067 0 293.7735-38.2461 330.6426-61.0332 49.7578-30.7803 62.3594-76.8828 65.4717-95.2656 12.0058-70.9824-14.6934-147.6953-14.9658-148.4609-.6114-1.7168-.9346-3.5372-.9864-5.3565-.7138-28.6035 11.5645-45.2529 22.0059-54.1807 19.3867-16.58 46.5273-19.6074 66.5098-19.6074-16.5127-56.9004-63.1758-52.0879-65.3535-51.7646-18.587 1.8701-31.7149 8.3154-40.4727 19.7265-17.7715 23.1787-12.0742 59.5362-12.0068 59.8936 1.122 6.9043-1.9727 13.8428-7.8907 17.5664-5.9179 3.7422-13.4853 3.6055-19.2158-.3906-51.834-36.0684-87.6816 6.3261-93.838 14.3867-19.0127 35.3555-5.2715 60.9141 8.877 75.7607 5.6455-12.9756 14.2334-24.0634 25.0996-32.0732 12.1767-8.9609 33.0596-18.3486 63.5683-11.9043 17.8897 3.7588 32.0391 15.7988 39.8614 33.9101 11.9375 27.6856 8.2129 66.7813-9.0821 95.0625-45.6767 74.3829-140.3984 55.9649-156.4521 52.1895-37.1065-1.377-66.9346-36.6133-66.9346-79.7051 0-169.9551-135.0932-308.2285-301.1371-308.2285-166.0864 0-301.2056 138.2734-301.2056 308.2285 0 49.3672 29.6924 84.9434 40.5845 96.3203h303.6118c9.6167 0 17.4136 7.7891 17.4136 17.4141s-7.7969 17.4141-17.4136 17.4141z"/><path d="m442.2847 453.1021c-17.9922 0-32.5152 14.5566-32.5152 32.5156 0 17.957 14.523 32.5146 32.5152 32.5146 17.958 0 32.5146-14.5576 32.5146-32.5146 0-17.9589-14.5566-32.5156-32.5146-32.5156z"/><path d="m342.7925 235.4126c-7.4312 0-14.3101-4.7959-16.6231-12.2617-1.1054-3.4863-25.4492-77.8692-94.3813-77.8692-9.6172 0-17.4141-7.788-17.4141-17.414 0-9.625 7.7969-17.4131 17.4141-17.4131 94.9853 0 126.3608 98.2246 127.6533 102.4082 2.8311 9.2002-2.3213 18.9443-11.5132 21.7842-1.709.5273-3.435.7656-5.1357.7656z"/><path d="m400.2974 235.7524c-.2974 0-.5865 0-.8843-.0166-9.6079-.4765-17.0059-8.6562-16.521-18.2646.3144-6.4277 8.8003-158.1533 90.5298-204.2559 36.1543-20.373 79.6719-17.1757 129.2773 9.4893 8.4688 4.5576 11.6494 15.1182 7.0918 23.5869-4.5576 8.4688-15.1347 11.6318-23.5869 7.0918-38.3994-20.6621-70.5986-23.9609-95.6743-9.8301-54.0952 30.5254-70.9307 137.1514-72.8609 175.6524-.4594 9.3027-8.1543 16.5468-17.3715 16.5468z"/></g></svg>