<svg enable-background="new 0 0 853.6703 1010" viewBox="0 0 853.6703 1010" xmlns="http://www.w3.org/2000/svg"><path d="m549.4628 979.4404 265.6963-403.3056-388.3241-224.8238-388.3242 224.8238 245.2729 403.3056" fill="#a6dddd"/><path d="m815.1591 576.1348 20.4746-143.086-408.7987-224.789-408.7988 224.789 20.4746 143.086 388.3242-224.8238z" fill="#fffffd"/><path d="m365.5298 18.0342h122.6275v128.8945h-122.6275z" fill="#907973"/><path d="m426.835 208.2598 183.9502 101.1665v-162.4976h-367.9004v162.4976z" fill="#ffca72"/><g fill="#37474f"><path d="m283.8003 997.4834c-6.0879 0-12.0229-3.0947-15.4238-8.6729l-245.2895-403.3066c-2.5171-4.1318-3.2481-9.1309-2.0577-13.8242 1.2071-4.711 4.251-8.7246 8.4346-11.1387l388.3413-224.8325c5.5947-3.2481 12.4653-3.2481 18.0601 0l388.3408 224.8325c4.2852 2.4824 7.3809 6.6309 8.5195 11.461 1.1231 4.83.2383 9.914-2.5 14.0644l-265.713 403.2891c-5.4756 8.332-16.666 10.6445-24.9638 5.1346-8.333-5.4756-10.6288-16.6484-5.1534-24.9637l255.2041-387.3546-362.7645-210.0287-363.3428 210.3686 235.6983 387.5586c5.187 8.5029 2.4658 19.6074-6.0367 24.7949-2.9253 1.7676-6.1734 2.6182-9.3535 2.6182z"/><path d="m815.1591 594.1777c-3.1289 0-6.2402-.8164-9.0293-2.4316l-379.2948-219.603-379.2939 219.603c-5.1866 3.0098-11.564 3.248-16.9039.6113-5.3906-2.6015-9.1489-7.7373-9.9995-13.6553l-20.4575-143.0937c-1.0542-7.4399 2.585-14.7441 9.166-18.3662l408.7989-224.7896c5.3911-2.9843 11.9887-2.9843 17.3794 0l408.7998 224.7896c6.581 3.6221 10.2197 10.9263 9.166 18.3662l-20.458 143.0937c-.8496 5.918-4.6084 11.0538-10 13.6553-2.4826 1.208-5.1691 1.8203-7.8732 1.8203zm-388.3241-260.9008c3.1123 0 6.2412.8076 9.0303 2.4316l365.2304 211.4311 14.9141-104.2954-389.1748-214.0078-389.1743 214.0078 14.914 104.2954 365.2305-211.4311c2.789-1.624 5.9179-2.4316 9.0298-2.4316z"/><path d="m488.1573 164.9634h-122.6275c-9.9824 0-18.0429-8.0777-18.0429-18.0347v-128.8945c-.0001-9.9566 8.0605-18.0342 18.0429-18.0342h122.6275c9.9824 0 18.0429 8.0776 18.0429 18.0342v128.8945c-.0001 9.957-8.0606 18.0347-18.0429 18.0347zm-104.6017-36.0694h86.5762v-92.8252h-86.5762z"/><path d="m610.7852 327.4609c-2.9932 0-5.9854-.7397-8.6904-2.2363l-175.2598-96.3882-175.2603 96.3882c-5.5605 3.0864-12.3798 2.9844-17.873-.272-5.4927-3.248-8.8599-9.1494-8.8599-15.5263v-162.4976c0-9.9653 8.0777-18.0347 18.043-18.0347h367.9004c9.9658 0 18.043 8.0694 18.043 18.0347v162.4976c0 6.3769-3.3661 12.2783-8.8604 15.5263-2.8224 1.6748-6.0196 2.5083-9.1826 2.5083zm-183.9502-137.2358c2.9932 0 5.9863.748 8.6895 2.2275l157.2177 86.4654v-113.9546h-331.8144v113.9546l157.2173-86.4654c2.7041-1.4795 5.6972-2.2275 8.6899-2.2275z"/><path d="m745.8613 1010h-668.6454c-9.9654 0-18.043-8.0781-18.043-18.0264 0-9.9648 8.0776-18.0428 18.043-18.0428h668.6455c9.9658 0 18.0263 8.0781 18.0263 18.0428-.0001 9.9483-8.0606 18.0264-18.0264 18.0264z"/></g><path d="m637.0244 593.8545c0 28.6885-23.2461 51.918-51.9512 51.918-28.6719 0-51.9024-23.2295-51.9024-51.918s23.2305-51.919 51.9024-51.919c28.7051 0 51.9512 23.2305 51.9512 51.919z" fill="#fff"/><path d="m585.0732 662.0137c-37.5664 0-68.1426-30.5762-68.1426-68.1592 0-37.5654 30.5762-68.1416 68.1426-68.1416 37.5996 0 68.1924 30.5762 68.1924 68.1416 0 37.583-30.5927 68.1592-68.1924 68.1592zm0-103.8535c-19.6758 0-35.6612 16.0185-35.6612 35.6943 0 19.6748 15.9854 35.6943 35.6612 35.6943 19.6914 0 35.7109-16.0195 35.7109-35.6943 0-19.6758-16.0195-35.6943-35.7109-35.6943z" fill="#37474f"/><path d="m426.835 985.2568c-9.9653 0-18.043-8.0781-18.043-18.0428v-724.1183c0-9.9653 8.0777-18.0347 18.043-18.0347 9.9648 0 18.043 8.0694 18.043 18.0347v724.1182c0 9.9648-8.0783 18.0429-18.043 18.0429z" fill="#37474f"/><path d="m552.915 733.4541c-28.043 0-50.8467-22.8213-50.8467-50.8467 0-8.963 7.2607-16.2246 16.2236-16.2246 8.9785 0 16.2403 7.2617 16.2403 16.2246 0 10.1348 8.248 18.3828 18.3828 18.3828 10.1347 0 18.3828-8.248 18.3828-18.3828v-69.248c0-8.9785 7.2793-16.2227 16.2402-16.2227 8.963 0 16.2403 7.2442 16.2403 16.2227v69.248c0 28.0254-22.8379 50.8467-50.8633 50.8467z" fill="#37474f"/><path d="m622.1279 733.4541c-28.0254 0-50.8301-22.8213-50.8301-50.8467v-64.2812c0-8.9796 7.2793-16.2246 16.2402-16.2246 8.963 0 16.2403 7.2451 16.2403 16.2246v64.2812c0 10.1348 8.2148 18.3828 18.3496 18.3828 10.1523 0 18.3828-8.248 18.3828-18.3828 0-8.963 7.2793-16.2246 16.2402-16.2246 8.9629 0 16.2411 7.2617 16.2411 16.2246.0001 28.0254-22.8212 50.8467-50.8641 50.8467z" fill="#37474f"/></svg>