<svg enable-background="new 0 0 1010 1010" viewBox="0 0 1010 1010" xmlns="http://www.w3.org/2000/svg"><path d="m753.793 505c0 137.4219-111.4044 248.793-248.793 248.793-137.4224 0-248.7925-111.3711-248.7925-248.793 0-137.4229 111.3701-248.8184 248.7925-248.8184 137.3887 0 248.793 111.3955 248.793 248.8184z" fill="#ffca72"/><g fill="#37474f"><path d="m505 771.9033c-147.167 0-266.9033-119.7363-266.9033-266.9033 0-147.1841 119.7363-266.9297 266.9033-266.9297s266.9043 119.7456 266.9043 266.9297c0 147.167-119.7373 266.9033-266.9043 266.9033zm0-497.6108c-127.2021 0-230.6987 103.4966-230.6987 230.7075 0 127.2021 103.4966 230.6992 230.6987 230.6992 127.2031 0 230.6992-103.4971 230.6992-230.6992 0-127.2109-103.4961-230.7075-230.6992-230.7075z"/><path d="m505 201.1089c-8.9956 0-16.3081-7.2954-16.3081-16.3003v-33.7051c0-9.0044 7.3125-16.2998 16.3081-16.2998 8.9961 0 16.3086 7.2954 16.3086 16.2998v33.7051c0 9.0049-7.3125 16.3003-16.3086 16.3003z"/><path d="m505 116.854c-8.9956 0-16.3081-7.2954-16.3081-16.291v-84.272c0-8.9956 7.3125-16.291 16.3081-16.291 8.9961 0 16.3086 7.2954 16.3086 16.291v84.272c0 8.9956-7.3125 16.291-16.3086 16.291z"/><path d="m505 875.1787c-8.9956 0-16.3081-7.2949-16.3081-16.291v-33.7051c0-8.9961 7.3125-16.292 16.3081-16.292 8.9961 0 16.3086 7.2959 16.3086 16.292v33.7051c0 8.9961-7.3125 16.291-16.3086 16.291z"/><path d="m505 1010c-8.9956 0-16.3081-7.2959-16.3081-16.291v-84.2803c0-8.9961 7.3125-16.292 16.3081-16.292 8.9961 0 16.3086 7.2959 16.3086 16.292v84.2803c0 8.9951-7.3125 16.291-16.3086 16.291z"/><path d="m858.9219 521.291h-33.7051c-9.0137 0-16.3086-7.2871-16.3086-16.291 0-9.0049 7.2949-16.2915 16.3086-16.2915h33.7051c8.9962 0 16.291 7.2866 16.291 16.2915 0 9.0039-7.2949 16.291-16.291 16.291z"/><path d="m993.709 521.291h-84.2637c-9.0128 0-16.3087-7.2871-16.3087-16.291 0-9.0049 7.2959-16.2915 16.3087-16.2915h84.2637c8.9961 0 16.291 7.2866 16.291 16.2915 0 9.0039-7.2949 16.291-16.291 16.291z"/><path d="m184.7837 521.291h-33.6714c-8.9961 0-16.291-7.2871-16.291-16.291 0-9.0049 7.2949-16.2915 16.291-16.2915h33.6714c9.0132 0 16.3081 7.2866 16.3081 16.2915 0 9.0039-7.2949 16.291-16.3081 16.291z"/><path d="m100.5547 521.291h-84.2632c-8.9956 0-16.2915-7.2871-16.2915-16.291 0-9.0049 7.2959-16.2915 16.2915-16.2915h84.2632c9.0127 0 16.3086 7.2866 16.3086 16.2915 0 9.0039-7.2959 16.291-16.3086 16.291z"/><path d="m731.4141 294.8862c-4.1836 0-8.334-1.5815-11.5137-4.7612-6.3594-6.3516-6.377-16.6743-.0166-23.0513l23.8076-23.8506c6.3604-6.3857 16.666-6.3769 23.043-.0253 6.3594 6.3515 6.3769 16.6738.0176 23.0424l-23.8087 23.8589c-3.1796 3.1973-7.3632 4.7871-11.5292 4.7871z"/><path d="m791.002 235.3071c-4.167 0-8.334-1.5898-11.5303-4.7788-6.3604-6.3515-6.3604-16.6821 0-23.0425l59.6045-59.5962c6.3603-6.3603 16.6826-6.3603 23.0595 0 6.3604 6.3599 6.3604 16.691 0 23.0425l-59.6044 59.5962c-3.1797 3.189-7.3467 4.7788-11.5293 4.7788z"/><path d="m254.7451 771.5635c-4.1665 0-8.3159-1.5811-11.5127-4.7617-6.3603-6.377-6.3774-16.6827-.0176-23.0596l23.8423-23.8594c6.3599-6.3594 16.6826-6.3594 23.0425 0 6.3604 6.3613 6.377 16.6836.0171 23.0606l-23.8418 23.8418c-3.1802 3.1972-7.3467 4.7783-11.5298 4.7783z"/><path d="m159.4282 866.8799c-4.1665 0-8.3501-1.5986-11.5132-4.7608-6.3598-6.3603-6.3769-16.7002-.0166-23.0605l59.5708-59.5879c6.3599-6.3594 16.6997-6.3594 23.0425 0 6.3604 6.3604 6.377 16.666.0171 23.043l-59.5708 59.6054c-3.1797 3.1622-7.3467 4.7608-11.5298 4.7608z"/><path d="m755.2207 771.5635c-4.1826 0-8.3496-1.5811-11.5293-4.7783l-23.8076-23.8594c-6.3604-6.377-6.3428-16.6992.0166-23.043 6.3769-6.3769 16.6992-6.3594 23.043.0176l23.8087 23.8594c6.3593 6.3593 6.3418 16.6992-.0176 23.042-3.1974 3.1806-7.3634 4.7617-11.5138 4.7617z"/><path d="m850.6055 866.8799c-4.1826 0-8.3496-1.5986-11.5293-4.7608l-59.6045-59.6054c-6.3604-6.3594-6.3604-16.6826 0-23.043 6.3769-6.3594 16.6992-6.3594 23.0596 0l59.6044 59.5879c6.3604 6.3603 6.3604 16.7002 0 23.0605-3.1796 3.1622-7.3632 4.7608-11.5302 4.7608z"/><path d="m278.5869 294.8862c-4.1665 0-8.3501-1.5898-11.5298-4.7783l-23.8423-23.8506c-6.3598-6.3686-6.3427-16.6909.0176-23.0595 6.377-6.3433 16.6821-6.3516 23.0425.017l23.8418 23.8506c6.3599 6.3682 6.3433 16.6909-.0171 23.0508-3.1802 3.1802-7.3296 4.77-11.5127 4.77z"/><path d="m218.999 235.3071c-4.1836 0-8.3496-1.5898-11.5298-4.7788l-59.5708-59.5962c-6.3603-6.3598-6.3432-16.6826.0166-23.0512 6.3438-6.3428 16.6827-6.3516 23.043.0087l59.5708 59.5962c6.3599 6.3687 6.3433 16.691-.0171 23.0513-3.1797 3.1802-7.3467 4.77-11.5127 4.77z"/><path d="m630.1113 226.583c-2.1093 0-4.2695-.4165-6.3613-1.3008-8.2812-3.5117-12.1416-13.0771-8.6553-21.3676l13.1787-31.0352c3.5039-8.2905 13.0957-12.1421 21.3594-8.6475 8.2822 3.5118 12.1602 13.0777 8.6562 21.3677l-13.1797 31.0352c-2.6191 6.2158-8.6552 9.9482-14.998 9.9482z"/><path d="m663.0166 148.978c-2.1426 0-4.3018-.4253-6.377-1.3095-8.2988-3.5118-12.1416-13.086-8.622-21.3677l32.957-77.5625c3.5195-8.2988 13.1797-12.1167 21.3594-8.6221 8.2988 3.52 12.1582 13.0859 8.6387 21.376l-32.9747 77.563c-2.6347 6.207-8.6552 9.9228-14.9814 9.9228z"/><path d="m366.7271 847.0684c-2.1255 0-4.2852-.4248-6.3599-1.3086-8.2818-3.5039-12.1592-13.0606-8.6563-21.3594l13.1797-31.0352c3.503-8.2988 13.0435-12.125 21.3589-8.6562 8.2818 3.5195 12.1592 13.0937 8.6563 21.376l-13.1797 31.0351c-2.6187 6.2246-8.6729 9.9483-14.999 9.9483z"/><path d="m314.0269 971.1758c-2.1431 0-4.3028-.4248-6.3604-1.3096-8.2988-3.5029-12.1592-13.0771-8.6387-21.3584l32.94-77.5801c3.52-8.2988 13.1621-12.1084 21.3589-8.6385 8.2817 3.5029 12.1421 13.0771 8.622 21.3593l-32.9233 77.5791c-2.6358 6.2236-8.6729 9.9482-14.9985 9.9482z"/><path d="m830.7607 659.5811c-2.1435 0-4.3027-.4249-6.3603-1.292l-31.0352-13.1973c-8.2988-3.502-12.1591-13.0762-8.6386-21.3584 3.5195-8.2988 13.1621-12.1084 21.3593-8.6397l31.0352 13.1631c8.2988 3.5371 12.1582 13.0948 8.6387 21.3936-2.6368 6.1894-8.6739 9.9307-14.9991 9.9307z"/><path d="m954.8672 712.2646c-2.1426 0-4.3018-.4082-6.3594-1.2919l-77.5625-32.9571c-8.2988-3.5039-12.1602-13.0781-8.6387-21.3594 3.5372-8.2988 13.1954-12.0908 21.3584-8.6386l77.5635 32.957c8.2988 3.5029 12.1582 13.0938 8.6387 21.376-2.6367 6.207-8.6738 9.914-15 9.914z"/><path d="m210.2578 396.189c-2.1426 0-4.3022-.4248-6.3599-1.3008l-31.018-13.1709c-8.2988-3.52-12.1592-13.103-8.6392-21.3848 3.52-8.29 13.1968-12.1079 21.3589-8.6304l31.0186 13.1797c8.2988 3.5118 12.1591 13.0943 8.6386 21.376-2.6357 6.1987-8.6728 9.9312-14.999 9.9312z"/><path d="m132.6953 363.2749c-2.1426 0-4.3027-.4253-6.3603-1.2925l-77.5625-32.957c-8.2989-3.5117-12.1592-13.0859-8.6387-21.376 3.5195-8.2905 13.1792-12.0996 21.3589-8.6304l77.563 32.9566c8.2988 3.5117 12.1587 13.0859 8.6386 21.3765-2.6357 6.1982-8.6728 9.9228-14.999 9.9228z"/><path d="m801.8672 398.6465c-6.4443 0-12.5488-3.8516-15.1172-10.2036-3.3672-8.3496.6631-17.8389 9.0127-21.2144l31.2734-12.6264c8.3155-3.3335 17.8389.663 21.2237 9.0126 3.3496 8.3497-.6807 17.8389-9.0303 21.2149l-31.2568 12.6265c-2.0059.7993-4.0811 1.1904-6.1055 1.1904z"/><path d="m879.958 367.084c-6.4287 0-12.5498-3.8604-15.1182-10.2036-3.3671-8.3579.6797-17.856 9.0137-21.2144l78.1738-31.5371c8.3165-3.3501 17.8399.6636 21.2237 9.0132 3.3506 8.3584-.6807 17.8559-9.0303 21.2143l-78.1582 31.5289c-2.0059.8076-4.0645 1.1987-6.1045 1.1987z"/><path d="m176.8931 651.1807c-6.4453 0-12.5503-3.8604-15.1011-10.2041-3.3838-8.3321.6465-17.8555 8.9961-21.2227l31.2392-12.6182c8.3331-3.3671 17.8389.6465 21.2061 8.9961 3.3838 8.3496-.6465 17.8565-8.9961 21.2238l-31.2563 12.6346c-1.9898.7989-4.064 1.1905-6.0879 1.1905z"/><path d="m51.8672 701.6533c-6.4448 0-12.5669-3.8603-15.1348-10.2041-3.3501-8.3496.6802-17.8555 9.0303-21.2226l78.1748-31.545c8.3496-3.3505 17.8389.6631 21.2227 9.0127 3.3671 8.3496-.6631 17.8389-9.0127 21.2061l-78.1924 31.5625c-1.9893.7988-4.064 1.1904-6.0879 1.1904z"/><path d="m637.543 846.7285c-6.463 0-12.5508-3.8603-15.1193-10.2207l-12.6006-31.2558c-3.3671-8.3497.6631-17.8389 9.0127-21.2061 8.333-3.4014 17.8389.6631 21.2227 9.0303l12.6016 31.2558c3.3671 8.3496-.6631 17.8555-9.0128 21.2061-2.0067.8164-4.0643 1.1904-6.1043 1.1904z"/><path d="m688.083 971.7207c-6.4287 0-12.5332-3.8613-15.1006-10.1875l-31.5801-78.123c-3.3837-8.3672.6465-17.8565 8.9961-21.2237 8.333-3.3672 17.8223.6631 21.2061 8.9961l31.5791 78.124c3.3848 8.3497-.6455 17.8389-8.9961 21.2227-2.0059.7998-4.0645 1.1914-6.1045 1.1914z"/><path d="m385.0425 221.7197c-6.4282 0-12.5503-3.8603-15.1182-10.2036l-12.6011-31.2139c-3.3671-8.3413.6631-17.8471 9.0127-21.2143 8.316-3.3418 17.856.6631 21.2232 9.0127l12.6011 31.2056c3.3671 8.3413-.6631 17.8476-9.0127 21.2143-1.9898.8081-4.0645 1.1992-6.105 1.1992z"/><path d="m353.4966 143.604c-6.4278 0-12.5498-3.8516-15.1177-10.2031l-31.5625-78.1665c-3.3672-8.3413.6631-17.8389 9.0127-21.2061 8.333-3.3589 17.8389.646 21.2231 9.0044l31.5625 78.1665c3.3672 8.3496-.663 17.8389-9.0131 21.2144-2.0064.7993-4.064 1.1904-6.105 1.1904z"/></g></svg>